<?xml version="1.0" encoding="utf-8"?>
<svg xmlns="http://www.w3.org/2000/svg" width="164" height="164" class="segno"><g transform="scale(4)"><path class="qrline" stroke="#085a75" d="M4 4.5h7m1 0h1m17 0h7m-33 1h1m5 0h1m1 0h1m17 0h1m5 0h1m-33 1h1m1 0h3m1 0h1m19 0h1m1 0h3m1 0h1m-33 1h1m1 0h3m1 0h1m19 0h1m1 0h3m1 0h1m-33 1h1m1 0h3m1 0h1m1 0h1m17 0h1m1 0h3m1 0h1m-33 1h1m5 0h1m1 0h1m17 0h1m5 0h1m-33 1h7m1 0h1m1 0h1m1 0h1m1 0h1m1 0h1m1 0h1m1 0h1m1 0h1m1 0h1m1 0h7m-25 1h1m-9 1h3m2 0h2m1 0h1m15 0h5m2 0h2m-27 2h1m-1 2h1m-1 2h1m-1 2h1m-1 2h1m-1 2h1m-1 2h1m-1 2h1m17 0h5m-21 1h1m15 0h1m3 0h1m-29 1h7m17 0h1m1 0h1m1 0h1m-29 1h1m5 0h1m1 0h1m15 0h1m3 0h1m-29 1h1m1 0h3m1 0h1m17 0h5m-29 1h1m1 0h3m1 0h1m-7 1h1m1 0h3m1 0h1m1 0h1m-9 1h1m5 0h1m1 0h1m-9 1h7m1 0h1"/><path class="qrline" stroke="#eee" d="M0 0.5h41m-41 1h41m-41 1h41m-41 1h41m-41 1h4m7 0h1m17 0h1m7 0h4m-41 1h4m1 0h5m1 0h1m17 0h1m1 0h5m1 0h4m-41 1h4m1 0h1m3 0h1m1 0h2m16 0h1m1 0h1m3 0h1m1 0h4m-41 1h4m1 0h1m3 0h1m1 0h2m16 0h1m1 0h1m3 0h1m1 0h4m-41 1h4m1 0h1m3 0h1m1 0h1m17 0h1m1 0h1m3 0h1m1 0h4m-41 1h4m1 0h5m1 0h1m17 0h1m1 0h5m1 0h4m-41 1h4m7 0h1m1 0h1m1 0h1m1 0h1m1 0h1m1 0h1m1 0h1m1 0h1m1 0h1m1 0h1m7 0h4m-41 1h12m17 0h12m-41 1h4m3 0h2m2 0h1m21 0h2m2 0h4m-41 1h4m6 0h1m26 0h4m-41 1h4m33 0h4m-41 1h4m6 0h1m26 0h4m-41 1h4m33 0h4m-41 1h4m6 0h1m26 0h4m-41 1h4m33 0h4m-41 1h4m6 0h1m26 0h4m-41 1h4m33 0h4m-41 1h4m6 0h1m26 0h4m-41 1h4m33 0h4m-41 1h4m6 0h1m26 0h4m-41 1h4m33 0h4m-41 1h4m6 0h1m26 0h4m-41 1h4m33 0h4m-41 1h4m6 0h1m26 0h4m-41 1h4m33 0h4m-41 1h12m17 0h3m5 0h4m-41 1h4m7 0h2m16 0h1m1 0h1m5 0h4m-41 1h4m1 0h5m1 0h1m17 0h3m5 0h4m-41 1h4m1 0h1m3 0h1m1 0h2m24 0h4m-41 1h4m1 0h1m3 0h1m1 0h2m24 0h4m-41 1h4m1 0h1m3 0h1m1 0h1m25 0h4m-41 1h4m1 0h5m1 0h1m25 0h4m-41 1h4m7 0h1m25 0h4m-41 1h41m-41 1h41m-41 1h41m-41 1h41"/><path class="qrline" stroke="#8b4000" d="M13 4.5h3m1 0h1m1 0h1m1 0h1m1 0h1m4 0h1m-15 1h1m3 0h1m3 0h1m2 0h1m-13 1h2m1 0h3m1 0h3m1 0h3m-11 1h1m1 0h2m2 0h2m3 0h1m-14 1h2m2 0h7m1 0h2m-14 1h1m1 0h1m3 0h1m1 0h1m1 0h1m1 0h1m-13 2h1m3 0h1m1 0h1m1 0h1m1 0h1m1 0h2m-15 1h5m2 0h2m2 0h3m-21 1h1m2 0h1m1 0h1m1 0h1m2 0h1m1 0h1m2 0h1m3 0h1m3 0h1m1 0h1m1 0h2m-29 1h1m2 0h1m2 0h1m1 0h2m1 0h1m1 0h3m1 0h2m1 0h2m1 0h2m1 0h2m2 0h1m-32 1h1m5 0h1m3 0h1m3 0h1m3 0h1m4 0h1m1 0h2m3 0h1m-30 1h2m4 0h6m4 0h1m2 0h1m2 0h1m1 0h3m2 0h1m-29 1h3m2 0h1m3 0h2m1 0h1m1 0h3m5 0h1m1 0h1m2 0h1m-30 1h2m1 0h1m3 0h2m1 0h3m1 0h2m1 0h3m2 0h5m1 0h1m2 0h1m-33 1h1m2 0h1m3 0h1m3 0h2m3 0h1m1 0h1m1 0h1m4 0h3m1 0h1m1 0h2m-33 1h1m1 0h1m2 0h1m2 0h4m1 0h1m2 0h2m2 0h2m1 0h1m2 0h1m1 0h1m1 0h1m1 0h1m-30 1h1m4 0h1m3 0h1m3 0h1m1 0h1m1 0h2m1 0h1m3 0h1m1 0h1m-25 1h1m3 0h1m1 0h3m1 0h3m1 0h1m3 0h3m1 0h1m1 0h1m2 0h1m-33 1h2m2 0h2m1 0h2m2 0h1m2 0h1m1 0h1m6 0h3m2 0h2m1 0h1m-31 1h4m2 0h1m2 0h1m3 0h1m1 0h2m2 0h1m1 0h1m1 0h1m1 0h5m1 0h1m-32 1h3m3 0h5m1 0h2m1 0h3m1 0h4m-24 1h6m1 0h2m2 0h2m1 0h2m1 0h3m2 0h2m4 0h1m3 0h1m-31 1h3m2 0h1m1 0h1m2 0h1m3 0h1m1 0h1m4 0h1m1 0h5m2 0h1m-33 1h5m2 0h11m1 0h5m5 0h4m-21 1h2m2 0h1m1 0h1m1 0h2m1 0h1m-14 1h4m1 0h1m1 0h3m1 0h1m8 0h1m1 0h1m-23 1h3m1 0h2m4 0h1m1 0h1m6 0h1m2 0h1m-24 1h1m2 0h6m2 0h4m6 0h1m-22 1h2m1 0h2m2 0h1m3 0h2m2 0h2m-15 1h1m2 0h2m1 0h1m1 0h1m2 0h2m1 0h5m2 0h1m-24 1h1m2 0h1m3 0h1m1 0h1m1 0h1m2 0h4m2 0h1m-21 1h5m4 0h4m1 0h3m2 0h3m1 0h1"/><path class="qrline" stroke="#ff0" d="M16 4.5h1m1 0h1m1 0h1m1 0h1m1 0h4m-15 1h1m1 0h3m1 0h3m1 0h2m1 0h3m-14 1h1m3 0h1m3 0h1m3 0h2m-16 1h3m1 0h1m2 0h2m2 0h3m1 0h1m-16 1h1m2 0h2m7 0h1m2 0h1m-16 1h1m1 0h1m1 0h3m1 0h1m1 0h1m1 0h1m1 0h2m-16 2h1m1 0h3m1 0h1m1 0h1m1 0h1m1 0h1m2 0h1m-11 1h2m2 0h2m3 0h1m-24 1h2m1 0h2m3 0h1m1 0h2m1 0h1m1 0h2m1 0h3m1 0h3m1 0h1m1 0h1m2 0h2m-33 1h2m1 0h2m2 0h1m1 0h1m2 0h1m1 0h1m3 0h1m2 0h1m2 0h1m2 0h1m2 0h2m-32 1h1m1 0h4m2 0h3m1 0h3m1 0h3m1 0h4m1 0h1m2 0h3m1 0h1m-33 1h2m2 0h2m1 0h1m6 0h4m1 0h2m1 0h2m1 0h1m3 0h2m1 0h1m-33 1h3m4 0h1m1 0h3m2 0h1m1 0h1m3 0h5m1 0h1m1 0h2m1 0h2m-33 1h1m2 0h1m1 0h1m1 0h1m2 0h1m3 0h1m2 0h1m3 0h2m5 0h1m1 0h2m-31 1h2m1 0h2m2 0h3m2 0h3m1 0h1m1 0h1m1 0h4m3 0h1m1 0h1m-30 1h1m1 0h2m2 0h1m4 0h1m1 0h2m2 0h2m2 0h1m1 0h2m1 0h1m1 0h1m1 0h1m-32 1h3m1 0h2m1 0h1m1 0h3m1 0h3m1 0h1m1 0h1m2 0h1m1 0h3m1 0h1m1 0h3m-33 1h5m2 0h2m1 0h1m3 0h1m3 0h1m1 0h3m3 0h1m1 0h1m1 0h2m-30 1h2m5 0h2m1 0h2m1 0h1m1 0h6m3 0h2m2 0h1m1 0h1m-33 1h1m4 0h1m2 0h2m1 0h3m1 0h1m2 0h2m1 0h1m1 0h1m1 0h1m5 0h1m-32 1h1m3 0h2m6 0h1m2 0h1m3 0h1m4 0h9m-24 1h2m2 0h1m2 0h1m3 0h2m2 0h4m1 0h3m-32 1h2m3 0h1m2 0h1m1 0h2m1 0h3m1 0h1m1 0h4m1 0h1m5 0h2m-27 1h1m12 0h1m-10 1h3m2 0h2m1 0h1m1 0h1m2 0h1m6 0h4m-24 1h1m4 0h1m1 0h1m3 0h1m1 0h2m5 0h1m1 0h1m-23 1h1m3 0h1m2 0h4m1 0h1m1 0h1m6 0h2m-22 1h2m6 0h2m9 0h1m1 0h2m-22 1h1m2 0h2m1 0h3m2 0h2m2 0h7m-24 1h2m1 0h2m2 0h1m1 0h1m1 0h2m2 0h1m5 0h2m-22 1h2m1 0h3m1 0h1m1 0h1m1 0h2m4 0h2m1 0h3m-19 1h4m4 0h1m3 0h2m3 0h1"/></g></svg>
